<svg width="100" height="100" viewBox="0 0 100 100" fill="none" xmlns="http://www.w3.org/2000/svg">
<rect width="100" height="100" rx="3" fill="#FEFFF3"/>
<rect x="31.3533" y="43.7893" width="5.51247" height="6.89059" fill="white"/>
<rect x="64.4282" y="43.7893" width="5.51247" height="6.89059" fill="white"/>
<rect x="53.4031" y="43.7893" width="5.51247" height="6.89059" fill="white"/>
<rect x="42.3782" y="43.7893" width="5.51247" height="6.89059" fill="white"/>
<rect x="31.3533" y="54.8143" width="5.51247" height="6.89059" fill="white"/>
<rect x="53.4031" y="54.8143" width="5.51247" height="6.89059" fill="white"/>
<rect x="42.3782" y="54.8143" width="5.51247" height="6.89059" fill="white"/>
<path d="M25.5816 77.4115C24.6817 77.4355 23.9379 77.4355 23.6259 77.0996C23.194 76.6316 23.05 75.9598 23.05 75.2039L23.254 26.9734C23.254 25.8577 25.3536 25.2338 26.2654 25.2338L34.2798 25.1618C34.3398 23.3381 34.6758 21.6705 35.8755 20.4347C36.8953 19.3669 38.287 18.863 39.7987 19.139C42.1263 19.5469 43.2421 21.8744 43.374 24.6819L59.1389 24.5379C59.3909 21.5265 60.6746 19.235 63.3861 18.995C64.5379 18.899 65.8816 19.3909 66.6975 20.3507C67.6933 21.5265 67.9212 22.9542 67.9572 24.6219L74.22 24.8618C75.0238 24.8978 76.9434 25.5937 77.0154 26.5055C77.4113 31.3166 77.2554 35.8997 77.2074 40.7467C77.1474 47.2254 77.2674 58.3233 79.379 63.4822L80.8907 67.1775C81.1186 67.7294 80.9746 68.8692 80.6027 69.2531C80.1108 69.757 78.983 69.913 78.1072 69.913L78.2152 73.8002C78.2392 74.652 77.4113 75.9718 76.4155 75.9958L25.5816 77.4115ZM63.938 29.8049C65.7376 24.4299 64.6818 20.8546 62.9182 22.3183C62.4383 22.7143 62.0064 24.214 62.2823 24.6819C63.0502 25.2458 63.674 25.7977 63.71 26.5055C63.746 27.3214 63.0982 28.2212 62.2343 28.2212L42.9781 28.2932C42.4742 31.4725 40.8545 33.9561 37.9391 33.8601C36.9313 33.8241 36.2115 32.8643 36.4394 31.9405C36.6074 31.2806 37.6392 30.9686 38.419 30.7287C39.7148 29.8889 39.7748 27.9212 39.9427 26.4815C40.2067 24.25 40.1227 22.1624 38.9349 22.2464C37.9751 22.3183 37.2553 23.6981 37.3272 25.0058C38.0351 25.5817 38.575 26.1336 38.647 26.8055C38.719 27.4773 38.0471 28.4251 37.3272 28.4371L25.8815 28.7851L25.9775 35.9117L74.3519 36.0796L74.7359 28.0292L67.7053 27.8373C67.2733 31.4965 64.8138 34.448 61.9824 33.4642C61.5385 33.3082 61.0346 32.3724 61.0826 31.9405C61.2625 30.4887 63.5781 30.8487 63.926 29.8169L63.938 29.8049ZM52.4563 66.2057C60.9266 65.5938 68.929 65.9418 77.1594 66.6016C73.7161 57.9273 73.908 48.4972 74.136 39.319L25.9895 39.163L26.0615 46.9735C26.1334 54.412 25.6295 61.2747 29.9727 67.8254L52.4563 66.1937V66.2057ZM62.7982 70.1049L46.0135 70.5009C39.9187 70.6448 34.1719 70.8008 28.0771 70.4649L26.2534 67.9694L26.4574 73.9562L74.7599 72.6724L74.8678 69.961L62.7982 70.1049Z" fill="#121212"/>
<path d="M38.3591 51.3888C37.2793 52.0727 35.8276 51.9407 34.5799 51.9527C32.9602 51.8567 31.1965 51.8447 30.4767 51.0289C29.6848 50.0091 29.7928 48.6173 29.8168 47.3456C29.9008 46.1578 29.9488 44.5021 30.8486 43.7223C32.1323 42.7865 33.4881 43.2424 35.1318 43.1584C36.3915 43.2424 37.4113 43.0024 38.4191 43.5663C39.5469 44.4902 39.2709 46.2058 39.4629 47.5375C39.5109 48.8093 39.5229 50.357 38.5151 51.2688L38.3591 51.3888ZM36.1875 49.7331C36.2355 49.2892 36.4275 46.0498 36.2715 45.51C35.6836 45.27 34.9518 45.33 34.2439 45.222C33.68 45.222 32.7922 44.8981 32.4803 45.186C32.3843 46.2538 32.3363 48.8453 32.3843 49.6731C32.4323 49.9011 32.9482 49.8051 33.812 49.8171C34.4599 49.7931 35.6357 49.8651 36.1396 49.7811L36.1875 49.7331Z" fill="#121212"/>
<path d="M60.0627 51.4248C59.2469 51.9527 58.1671 51.9047 57.2073 51.9407C55.1677 51.9047 52.9481 52.0007 52.1203 50.8009C51.4484 49.8171 51.4844 48.6053 51.5324 47.4176C51.6644 46.2658 51.6644 44.5861 52.5762 43.7583C53.632 42.8945 55.5636 43.2064 56.9073 43.1464C58.2391 43.2904 59.7868 42.9185 60.6866 43.8423C60.8786 44.1662 60.9266 44.5861 60.9625 44.9941C61.0345 46.9497 61.8384 49.7091 60.2067 51.3048L60.0507 51.4248H60.0627ZM57.8911 49.7331C58.0231 48.7613 58.1431 46.3138 58.1311 45.5819C58.0831 45.354 57.5552 45.39 56.6794 45.27C56.0195 45.246 54.7958 44.9701 54.2919 45.09C54.1119 45.282 54.1359 49.3132 54.1719 49.6611C54.2799 49.7931 54.4598 49.7931 54.6158 49.8051C55.4316 49.7811 57.0993 49.8531 57.8432 49.7691L57.9031 49.7211L57.8911 49.7331Z" fill="#121212"/>
<path d="M49.7929 47.8855C49.7809 48.9053 49.7689 50.6329 48.809 51.3528C46.9854 52.3006 44.166 52.1686 42.2943 51.3528C41.0226 50.7049 41.2025 48.6893 41.2865 46.9377C41.4305 45.8579 41.3825 44.5261 41.9704 43.6023C42.3903 43.1464 43.1102 43.1944 43.782 43.1704C45.1738 43.1704 46.6975 43.0144 47.9452 43.2184C50.0928 43.3264 49.6129 46.1218 49.7929 47.6695V47.8615V47.8855ZM46.8654 49.7331C46.9494 49.6131 46.9254 48.7973 46.9854 47.7775C46.9494 46.6257 47.2614 45.7619 46.8894 45.426C46.1816 45.27 45.0418 45.186 44.2859 45.09C43.866 45.042 43.6741 45.018 43.6021 45.162C43.5301 45.6299 43.4821 48.6893 43.5421 49.6731C43.902 49.9731 44.5139 49.7571 45.0418 49.8171C45.6177 49.7931 46.3735 49.8531 46.7934 49.7811L46.8534 49.7331H46.8654Z" fill="#121212"/>
<path d="M39.3668 60.315C39.1748 62.1866 36.5953 62.4386 34.9036 62.3426C33.4639 62.3186 31.9282 62.3666 30.6685 61.6587C29.4687 60.8429 29.8046 58.9953 29.9366 57.2196C30.0446 56.4278 30.1406 55.48 30.8244 54.9881C31.1604 54.7361 31.6403 54.6161 32.1922 54.5681C34.6757 54.4602 37.6751 54.4482 38.6829 54.8921C39.1268 55.132 39.2108 55.5879 39.2588 56.0918C39.3188 57.3036 39.4987 58.9353 39.4147 60.123L39.3788 60.315H39.3668ZM36.1874 60.363C36.2594 59.4392 36.4393 57.4716 36.2834 56.6437C36.2594 56.5118 32.96 56.1278 32.5401 56.2478C32.3121 57.1116 32.3721 59.8471 32.3721 60.279C32.4201 60.447 32.6001 60.447 32.984 60.447C33.7759 60.423 35.3955 60.507 36.1394 60.411L36.1874 60.363Z" fill="#121212"/>
<path d="M60.1827 61.8267C59.2949 62.3906 58.1191 62.3066 57.0873 62.3546C55.0717 62.2706 52.7202 62.4626 51.9643 61.1429C51.2205 59.4632 51.3645 56.6677 52.4083 55.156C53.4281 54.2682 54.4599 54.5682 55.8156 54.5202C57.1113 54.6282 59.0909 54.3642 60.2067 54.8561C61.2865 55.7079 61.0106 57.3276 61.2025 58.5874C61.2505 59.6912 61.1785 60.9629 60.3387 61.7068L60.1827 61.8267ZM57.9272 60.375C58.0112 59.5472 58.2151 57.3876 58.0711 56.6558C58.0471 56.5238 54.7238 56.1279 54.3039 56.2358C54.1239 56.4398 54.1239 59.9311 54.1599 60.291C54.3399 60.495 54.4719 60.447 54.8198 60.459C55.6596 60.435 57.0873 60.519 57.8672 60.423L57.9272 60.375Z" fill="#121212"/>
<path d="M70.6567 51.3768C69.0131 52.3606 66.3376 51.9527 64.5619 51.6287C64.094 51.4968 63.7101 51.3168 63.4582 50.9329C62.8703 49.8291 62.9663 48.4734 63.0023 47.1656C63.1342 46.0618 63.0982 44.3822 63.7581 43.5543C64.5739 42.9304 66.4456 43.2904 67.5853 43.1584C68.9171 43.1824 70.4768 42.8465 71.1247 44.1782C71.4246 44.8621 71.4126 45.6419 71.4726 46.3738C71.5446 47.9455 71.8565 49.9011 70.8127 51.2448L70.6687 51.3768H70.6567ZM68.6411 49.7451C68.7251 49.6251 68.7011 48.8093 68.7491 47.7895C68.7011 46.6377 69.0131 45.7739 68.6411 45.4379C67.9333 45.282 66.7935 45.21 66.0497 45.102C65.6417 45.054 65.4378 45.03 65.3658 45.174C65.2938 45.6299 65.2218 48.6893 65.2818 49.6611C65.6417 49.9611 66.2656 49.7571 66.7935 49.8171C67.3694 49.7931 68.1372 49.8651 68.5692 49.7811L68.6291 49.7331L68.6411 49.7451Z" fill="#121212"/>
<path d="M48.9651 61.8028C48.0772 62.4386 46.8175 62.2947 45.7497 62.3426C43.986 62.2827 42.1264 62.3426 41.5865 61.1189C40.9026 59.3672 41.1186 56.5358 41.9824 54.9161C42.4983 54.4002 43.6741 54.6042 44.4899 54.5562C45.6897 54.5562 46.9015 54.4962 47.9693 54.5682C49.6129 54.6282 49.7449 56.2358 49.7809 57.5436C49.7809 58.8513 49.9249 60.615 49.109 61.6708L48.9771 61.8028H48.9651ZM46.8775 60.375C46.9375 59.9431 47.1534 57.1717 46.9854 56.6318C46.5055 56.4158 46.0496 56.4638 45.4977 56.3678C44.9099 56.3438 44.118 56.1039 43.6861 56.2358C43.4821 56.4278 43.5301 59.9191 43.5661 60.279C43.914 60.603 44.5499 60.387 45.0658 60.447C45.6417 60.423 46.4096 60.507 46.8295 60.423L46.8895 60.375H46.8775Z" fill="#121212"/>
</svg>
