<svg width="55" height="50" viewBox="0 0 55 50" fill="none" xmlns="http://www.w3.org/2000/svg">
<path d="M53.7173 19.9997C51.9167 17.9498 49.9223 16.2232 47.8078 14.4873C45.1948 12.3544 42.3878 10.6646 39.747 8.56865L33.6437 3.73955C31.8432 2.30836 30.015 1.11725 27.9836 0C26.497 0.766377 25.2043 1.57892 23.8932 2.55767L19.7474 5.64164C19.8212 4.44129 19.932 3.31481 19.8766 2.13293C19.812 0.923346 18.9441 0.101568 17.7622 0.166202C15.9432 0.0831011 14.2073 0.295471 12.4068 0.470906C11.2618 0.581708 10.3846 1.04338 10.0707 2.29913C9.9876 2.99164 10.0338 3.78572 10.0522 4.55209L10.3292 12.6406L1.83446 19.1225C0.984981 19.7688 0.504841 20.6368 0.190904 21.6525C-0.289236 23.6377 0.135503 25.7244 1.47435 27.2941C3.08098 29.1777 6.27575 29.6209 7.80851 27.6357C7.95624 29.861 7.95624 31.9847 7.85467 34.21C7.74387 36.6753 7.73464 39.0298 7.76234 41.4952C7.80851 45.484 8.84265 48.1709 13.127 48.8819C16.1279 49.3805 19.0549 49.4821 22.1388 49.4821L36.0998 49.4636C38.3158 49.4636 40.3934 49.3621 42.5355 48.9835C45.7488 48.4018 47.3 47.0999 48.0941 43.9328C48.5281 42.2061 48.6019 40.4979 48.4727 38.6974L48.0294 32.5295C47.9094 30.812 48.7127 29.1685 48.445 27.4788C49.8854 27.6911 51.2519 27.5342 52.4615 26.8694C53.9758 26.0383 54.7976 24.5148 54.7237 22.7697C54.5483 21.8187 54.3821 20.7476 53.7173 19.9904V19.9997ZM12.7207 6.62962L12.7946 2.98241L17.3467 2.79774C17.2728 4.49669 17.1989 5.92788 17.2359 7.5622L12.5545 10.8308L12.7207 6.62039V6.62962ZM45.5826 42.954C45.2317 44.4406 43.9021 45.5117 42.4063 45.7241C40.9474 45.9364 39.5347 45.9364 38.0573 45.918L32.4434 45.8441L14.4104 46.5736C12.3791 46.6567 10.9848 45.0223 10.9663 43.1387L10.9479 43.1202L10.874 40.9873H10.8463V40.2209L10.717 35.5396L10.5785 33.3512C10.5785 33.3512 10.6339 33.3512 10.6616 33.3512V32.9357L10.5416 31.6154C10.5416 31.6154 10.5324 31.6154 10.5231 31.6154L10.3477 29.3716H10.3569L10.1723 27.054L10.1907 25.4843L18.9164 19.2333L27.9836 12.576L35.2411 17.9498L45.3794 25.1889L44.9916 29.3624C44.8254 31.2091 44.7054 33.0373 44.9362 34.8655L45.601 40.0547C45.7211 41.015 45.7857 42.0122 45.5641 42.954H45.5826ZM52.1937 23.5453C51.9906 24.1086 51.5197 24.5795 51.0673 24.7364C50.4855 24.9396 49.7192 24.9119 49.1836 24.5241L39.8671 17.8206L33.7453 13.25C32.1848 12.0866 30.6613 11.034 28.9808 9.92597C28.4083 9.54739 27.605 9.6859 27.0418 9.94443C25.7029 10.5631 24.5026 11.2925 23.3392 12.1882L18.2054 16.177L5.50014 25.9091C4.743 26.4908 3.75502 26.223 3.26565 25.5028C2.36077 24.1824 2.35153 22.0772 3.42261 21.2831L27.4111 3.55488C27.7158 3.33328 28.1129 3.31481 28.4176 3.53641L51.3166 20.4521C52.3138 21.1908 52.6 22.4465 52.1937 23.5545V23.5453Z" fill="#121212"/>
</svg>
