<svg width="64" height="44" viewBox="0 0 64 44" fill="none" xmlns="http://www.w3.org/2000/svg">
<path d="M27.9399 43.8551C21.9699 44.1751 14.7399 44.5351 12.6399 38.0451L8.19993 38.3351C6.86993 38.4251 5.60994 38.2851 4.30994 38.0251C3.13994 37.6051 1.85994 37.1051 1.19994 35.9851C0.0199353 33.9751 -0.170065 31.6451 0.119935 29.3451C0.959935 24.1351 4.61994 19.2451 9.71994 17.5651C7.25994 14.1651 7.18993 9.97509 9.47993 6.54509C11.6299 3.36509 15.1099 1.25509 18.9799 0.905092C22.1899 0.615092 25.2199 1.80509 27.3899 4.21509C30.0199 3.34509 32.8099 3.19509 35.5999 3.83509C36.2399 2.83509 37.0399 2.07509 38.0799 1.44509C41.7399 -0.564907 46.1199 -0.474908 49.6899 1.69509C54.8999 4.86509 57.3799 11.3651 53.5499 16.6351C58.6199 18.2651 62.1999 23.0251 63.1199 28.1751C63.4399 30.5851 63.2699 33.0351 62.0199 35.1251C61.3699 36.2151 60.1199 36.6951 58.9799 37.1151C57.6299 37.3951 56.3199 37.5151 54.9399 37.4251L51.1699 37.1851C50.8099 39.8751 49.0499 41.9151 46.4899 42.7951C44.6299 43.4351 42.7199 43.7251 40.7199 43.7251H33.6199C31.6999 43.7451 29.8799 43.7451 27.9599 43.8551H27.9399ZM48.7099 17.9551C52.2599 15.3751 54.0599 10.7451 51.3899 7.09509C48.4599 3.09509 42.5899 1.81509 38.9399 5.51509C43.3099 8.89509 44.7499 14.7451 42.6299 19.7251C44.8899 19.9251 46.9199 19.2451 48.7199 17.9551H48.7099ZM21.0899 20.4651C18.4499 15.5551 20.0599 9.72509 24.1899 6.19509C20.2899 2.56509 14.4399 4.16509 11.7299 8.26509C9.01993 12.3651 11.6999 17.3851 15.9099 19.5451C17.4999 20.3651 19.2099 20.7551 21.0899 20.4651ZM31.0499 23.1751C34.4499 23.4451 37.5199 21.6751 38.9299 18.6251C40.0799 16.1351 40.0999 13.3451 38.9699 10.8451C36.7699 6.00509 31.0999 5.24509 26.5799 7.97509C24.0399 9.51509 22.5099 12.1751 22.5299 15.1451C22.5499 18.1151 24.1599 20.6751 26.7399 22.0251C28.0899 22.7351 29.4599 23.0351 31.0599 23.1651L31.0499 23.1751ZM51.2499 34.4951L55.9699 34.5451C57.2199 34.5551 58.3799 34.2151 59.4699 33.6551C60.8499 32.2051 60.5299 28.6951 59.9699 26.6951C58.8599 22.7951 55.9499 19.7751 52.1799 18.3251C49.3199 21.0351 45.5199 22.4151 41.6799 21.4051L41.1999 22.1551C46.9199 23.6751 51.1199 28.5251 51.2599 34.4951H51.2499ZM12.2999 35.3051C12.2099 32.4151 12.8099 29.8751 14.1199 27.5251C15.3499 25.3651 17.0999 23.6651 19.2699 22.5651C16.1799 22.6651 13.4299 21.3251 11.1499 19.1851C7.46993 20.5651 4.57994 23.5551 3.41994 27.3551C2.76994 29.4851 2.52994 33.4451 3.88994 34.4451C4.88994 35.1751 6.16994 35.4351 7.39994 35.4151L12.2999 35.3051ZM37.6099 41.2651C40.3399 41.2351 42.8399 41.0751 45.3899 40.5251C47.1999 40.1351 48.4099 38.7451 48.7199 36.9551C48.9799 35.4351 48.7799 33.9651 48.4299 32.4651C47.9699 30.4651 46.9799 28.7651 45.4099 27.4251C43.5499 25.8351 41.3199 24.8351 38.8599 24.3951C34.0899 27.6851 27.7199 26.7851 23.3499 23.1751C20.6899 24.4651 18.3399 26.0951 16.7499 28.5851C15.1399 31.4651 14.2799 35.9851 15.9499 38.7351C17.3499 41.0351 20.8799 41.4751 23.6099 41.4351L37.6099 41.2551V41.2651Z" fill="#121212"/>
</svg>
