<svg width="261" height="48" viewBox="0 0 261 48" fill="none" xmlns="http://www.w3.org/2000/svg">
<path d="M81.1701 9.4H89.5301C89.8501 9.4 90.0901 9.68 90.0901 10V36.44C90.0901 36.72 89.8501 37 89.5301 37H82.1301C81.81 37 81.5301 36.72 81.5301 36.44V24.68L77.4901 36.4C77.37 36.72 76.8501 37 76.4901 37H72.09C71.73 37 71.21 36.72 71.09 36.4L67.05 24.68V36.44C67.05 36.72 66.77 37 66.45 37H59.05C58.73 37 58.49 36.72 58.49 36.44V10C58.49 9.68 58.73 9.4 59.05 9.4H67.41C67.93 9.4 68.53 9.76 68.77 10.2L74.29 25.48L79.81 10.2C80.0501 9.76 80.6501 9.4 81.1701 9.4ZM97.1422 6.2C99.7822 6.2 101.542 7.84 101.542 10.32C101.542 12.68 99.7822 14.28 97.1422 14.28C94.5022 14.28 92.7422 12.68 92.7422 10.32C92.7422 7.84 94.5022 6.2 97.1422 6.2ZM93.6622 15H100.702C101.022 15 101.302 15.28 101.302 15.56V36.4C101.302 36.72 101.022 37 100.702 37H93.6622C93.3422 37 93.0622 36.72 93.0622 36.4V15.56C93.0622 15.28 93.3422 15 93.6622 15ZM109.873 15.4L110.393 16.68C111.673 15.28 114.393 14.44 116.833 14.44C122.273 14.44 125.233 16.96 125.233 23.2V36.4C125.233 36.72 124.953 37 124.633 37H117.593C117.273 37 116.993 36.72 117.033 36.4V24.44C117.033 22.84 116.313 21.92 115.073 21.92C112.793 21.92 112.433 24.16 112.433 24.16V36.4C112.433 36.72 112.153 37 111.833 37H104.793C104.473 37 104.193 36.72 104.193 36.4V15.56C104.193 15.2 104.393 15 104.753 15H109.233C109.513 15 109.753 15.12 109.873 15.4ZM132.025 6.2C134.665 6.2 136.425 7.84 136.425 10.32C136.425 12.68 134.665 14.28 132.025 14.28C129.385 14.28 127.625 12.68 127.625 10.32C127.625 7.84 129.385 6.2 132.025 6.2ZM128.545 15H135.585C135.905 15 136.185 15.28 136.185 15.56V36.4C136.185 36.72 135.905 37 135.585 37H128.545C128.225 37 127.945 36.72 127.945 36.4V15.56C127.945 15.28 128.225 15 128.545 15ZM138.756 34.24L141.276 28.6C141.396 28.2 141.676 28.08 141.996 28.28C143.836 29.32 146.036 30.08 147.556 30.2C148.836 30.2 149.676 29.6 149.676 28.68C149.676 26.32 138.436 26.44 138.436 17.72C138.436 12.36 142.476 8.8 148.556 8.8C151.396 8.8 154.996 9.96 157.516 11.68C157.836 11.88 157.956 12.2 157.836 12.4L155.316 18.04C155.196 18.44 154.916 18.56 154.596 18.36C152.636 17.24 150.356 16.4 148.956 16.28C147.716 16.28 146.916 16.84 146.916 17.72C146.916 20.08 158.236 19.92 158.236 28.72C158.236 34.04 154.116 37.6 147.956 37.6C144.596 37.6 141.076 36.56 139.076 34.96C138.756 34.72 138.636 34.44 138.756 34.24ZM170.522 15H173.522C173.882 15 174.122 15.24 174.122 15.56L173.682 19.44C173.642 19.76 173.402 20.04 173.082 20.04H170.522V36.4C170.522 36.72 170.242 37 169.922 37H162.882C162.562 37 162.282 36.72 162.282 36.4V20.04H160.002C159.722 20.04 159.442 19.8 159.442 19.48V15.6C159.442 15.24 159.722 15 160.002 15H162.282V10.64C162.282 10.36 162.562 10.12 162.882 10.08L169.922 9.4C170.242 9.36 170.522 9.68 170.522 9.96V15ZM187.591 15H188.631C188.951 15 189.191 15.24 189.191 15.56V20.76C189.191 21.08 188.951 21.32 188.631 21.32H187.591C186.071 21.32 184.711 22 184.191 23V36.4C184.191 36.72 183.911 37 183.591 37H176.551C176.231 37 175.951 36.72 175.951 36.4V15.6C175.951 15.32 176.231 15.04 176.551 15.04H181.071C181.391 15.04 181.591 15.32 181.711 15.64L182.311 17.4C183.511 15.92 185.471 15 187.591 15ZM207.818 29.8L209.538 34.76C209.618 35.04 209.538 35.2 209.258 35.36C207.138 36.76 204.058 37.6 200.978 37.6C193.898 37.6 189.178 32.96 189.178 26.04C189.178 19.08 193.818 14.44 200.778 14.44C207.418 14.44 211.338 18.72 211.338 26C211.338 26.6 211.298 27.2 211.178 27.8C211.138 28.12 210.938 28.28 210.578 28.28H197.738C197.738 28.28 197.738 30.8 201.098 30.8C203.138 30.8 205.418 30.32 207.218 29.48C207.498 29.36 207.738 29.52 207.818 29.8ZM197.698 24.08H203.378C203.378 22.32 202.298 21.16 200.698 21.16C198.898 21.16 197.698 22.32 197.698 24.08ZM217.248 22.28L214.968 17.48C214.848 17.2 214.928 16.92 215.168 16.72C217.448 15.28 220.648 14.44 223.848 14.44C230.768 14.44 233.968 18.08 233.968 26.04V36.4C233.968 36.72 233.688 37 233.368 37H228.328C228.008 37 227.688 36.72 227.688 36.4L227.408 35.32C226.088 36.72 223.448 37.6 220.528 37.6C215.928 37.6 212.888 34.64 212.928 30.24C212.968 26.32 216.008 23.72 220.528 23.72C222.848 23.72 224.928 24.56 225.728 25.84V24.16C225.728 22.44 224.488 21.32 222.648 21.32C221.088 21.32 219.168 21.84 217.848 22.6C217.648 22.72 217.408 22.56 217.248 22.28ZM225.728 30.68V29.8C225.048 29.12 224.368 28.8 223.528 28.8C222.528 28.8 221.848 29.36 221.848 30.24C221.848 31.12 222.528 31.68 223.528 31.68C224.368 31.68 225.048 31.36 225.728 30.68ZM237.449 8H244.489C244.809 8 245.089 8.28 245.089 8.56V21.84L248.809 15.48C248.969 15.2 249.369 15 249.729 15H257.729C258.049 15 258.169 15.2 258.009 15.48L252.089 25.28L259.329 36.52C259.529 36.8 259.369 37 259.049 37H250.529C250.249 37 249.849 36.8 249.689 36.52L245.089 28.6V36.4C245.089 36.72 244.809 37 244.489 37H237.449C237.129 37 236.849 36.72 236.849 36.4V8.56C236.849 8.28 237.129 8 237.449 8Z" fill="#121212"/>
<rect x="2.0249" y="7" width="36" height="7" fill="#FF9D00"/>
<path d="M2.0249 36L6.0249 37.5L38.0249 36V42H2.0249V36Z" fill="#FF9D00"/>
<path d="M1.0249 15L38.0249 14.5L40.0249 37H3.5249L1.5249 26L1.0249 15Z" fill="#FFF36B"/>
<rect x="6.0249" y="19" width="4" height="5" fill="white"/>
<rect x="30.0249" y="19" width="4" height="5" fill="white"/>
<rect x="22.0249" y="19" width="4" height="5" fill="white"/>
<rect x="14.0249" y="19" width="4" height="5" fill="white"/>
<rect x="6.0249" y="27" width="4" height="5" fill="white"/>
<rect x="22.0249" y="27" width="4" height="5" fill="white"/>
<rect x="14.0249" y="27" width="4" height="5" fill="white"/>
<path d="M1.83693 43.3972C1.18399 43.4146 0.64423 43.4146 0.417879 43.1708C0.10447 42.8313 0 42.3438 0 41.7953L0.147999 6.79794C0.147999 5.9883 1.67152 5.5356 2.33316 5.5356L8.14864 5.48336C8.19216 4.16008 8.43593 2.94997 9.30651 2.05327C10.0465 1.27846 11.0564 0.912812 12.1533 1.11305C13.8422 1.40904 14.6519 3.09797 14.7476 5.13513L26.1871 5.03066C26.3699 2.8455 27.3014 1.18269 29.2689 1.00858C30.1047 0.93893 31.0797 1.29587 31.6717 1.99233C32.3943 2.8455 32.5597 3.88149 32.5858 5.0916L37.1303 5.26572C37.7136 5.29183 39.1065 5.79677 39.1587 6.45841C39.446 9.94944 39.3328 13.2751 39.298 16.7922C39.2545 21.4933 39.3415 29.5462 40.8738 33.2897L41.9707 35.9711C42.1361 36.3716 42.0316 37.1986 41.7618 37.4772C41.4048 37.8429 40.5865 37.956 39.951 37.956L40.0293 40.7767C40.0467 41.3948 39.446 42.3525 38.7234 42.3699L1.83693 43.3972ZM29.6694 8.85251C30.9753 4.95231 30.2092 2.35798 28.9294 3.42008C28.5812 3.70738 28.2678 4.7956 28.468 5.13513C29.0252 5.5443 29.4779 5.94477 29.504 6.45841C29.5301 7.05041 29.06 7.70334 28.4332 7.70334L14.4603 7.75558C14.0947 10.0626 12.9194 11.8647 10.8039 11.7951C10.0726 11.769 9.55027 11.0725 9.71568 10.4021C9.83756 9.92332 10.5863 9.69697 11.1521 9.52286C12.0924 8.91345 12.1359 7.4857 12.2578 6.441C12.4493 4.82172 12.3884 3.30691 11.5265 3.36785C10.83 3.42008 10.3077 4.42125 10.3599 5.37019C10.8736 5.78806 11.2653 6.18853 11.3176 6.67606C11.3698 7.16358 10.8823 7.85134 10.3599 7.86005L2.05457 8.11252L2.12422 13.2838L37.226 13.4056L37.5046 7.56405L32.403 7.42476C32.0896 10.08 30.3049 12.2217 28.2503 11.5078C27.9282 11.3946 27.5626 10.7156 27.5974 10.4021C27.728 9.34874 29.4082 9.60991 29.6607 8.86121L29.6694 8.85251ZM21.3379 35.2659C27.4842 34.8219 33.291 35.0744 39.2632 35.5532C36.7646 29.2589 36.9039 22.4162 37.0693 15.7562L2.13292 15.643L2.18516 21.3105C2.23739 26.7081 1.87175 31.6878 5.02325 36.4412L21.3379 35.2572V35.2659ZM28.8423 38.0953L16.6629 38.3826C12.2404 38.4871 8.07028 38.6003 3.64773 38.3565L2.32445 36.5457L2.47245 40.8899L37.522 39.9584L37.6004 37.9908L28.8423 38.0953Z" fill="#121212"/>
<path d="M11.1087 24.5144C10.3251 25.0106 9.27173 24.9148 8.36633 24.9236C7.19105 24.8539 5.91129 24.8452 5.38895 24.2532C4.81436 23.5132 4.89271 22.5033 4.91013 21.5805C4.97107 20.7186 5.00589 19.5172 5.65883 18.9514C6.59035 18.2723 7.5741 18.6031 8.7668 18.5422C9.68091 18.6031 10.4209 18.429 11.1522 18.8382C11.9705 19.5085 11.7703 20.7535 11.9096 21.7198C11.9444 22.6426 11.9531 23.7657 11.2218 24.4273L11.1087 24.5144ZM9.53291 23.313C9.56773 22.9909 9.70703 20.6403 9.59385 20.2485C9.16727 20.0744 8.63621 20.1179 8.12257 20.0396C7.7134 20.0396 7.06917 19.8045 6.84282 20.0135C6.77317 20.7883 6.73835 22.6687 6.77317 23.2694C6.80799 23.4349 7.18234 23.3652 7.80916 23.3739C8.27927 23.3565 9.13244 23.4087 9.49809 23.3478L9.53291 23.313Z" fill="#121212"/>
<path d="M26.8573 24.5405C26.2653 24.9236 25.4818 24.8887 24.7853 24.9149C23.3053 24.8887 21.6948 24.9584 21.0941 24.0878C20.6065 23.3739 20.6327 22.4946 20.6675 21.6328C20.7632 20.797 20.7632 19.5782 21.4249 18.9775C22.191 18.3507 23.5926 18.577 24.5677 18.5335C25.534 18.638 26.6571 18.3681 27.31 19.0384C27.4493 19.2735 27.4841 19.5782 27.5102 19.8742C27.5625 21.2932 28.1458 23.2956 26.9618 24.4534L26.8486 24.5405H26.8573ZM25.2816 23.313C25.3773 22.6078 25.4644 20.8318 25.4557 20.3008C25.4209 20.1354 25.0378 20.1615 24.4023 20.0744C23.9235 20.057 23.0355 19.8568 22.6698 19.9438C22.5392 20.0831 22.5566 23.0083 22.5828 23.2608C22.6611 23.3565 22.7917 23.3565 22.9049 23.3652C23.4969 23.3478 24.707 23.4 25.2467 23.3391L25.2903 23.3043L25.2816 23.313Z" fill="#121212"/>
<path d="M19.4052 21.9723C19.3965 22.7123 19.3878 23.9659 18.6913 24.4883C17.368 25.176 15.3222 25.0803 13.9641 24.4883C13.0413 24.0182 13.1718 22.5556 13.2328 21.2845C13.3373 20.501 13.3024 19.5347 13.729 18.8643C14.0337 18.5335 14.5561 18.5683 15.0436 18.5509C16.0535 18.5509 17.1591 18.4377 18.0645 18.5857C19.6229 18.6641 19.2746 20.6925 19.4052 21.8156V21.9549V21.9723ZM17.281 23.313C17.3419 23.2259 17.3245 22.6339 17.368 21.8939C17.3419 21.0582 17.5683 20.4314 17.2984 20.1876C16.7848 20.0744 15.9577 20.0135 15.4092 19.9438C15.1045 19.909 14.9652 19.8916 14.913 19.9961C14.8608 20.3356 14.826 22.5556 14.8695 23.2695C15.1307 23.4871 15.5747 23.3304 15.9577 23.3739C16.3756 23.3565 16.9241 23.4 17.2288 23.3478L17.2723 23.313H17.281Z" fill="#121212"/>
<path d="M11.8398 30.9915C11.7005 32.3496 9.8288 32.5324 8.60128 32.4628C7.55658 32.4454 6.44224 32.4802 5.52813 31.9665C4.65755 31.3746 4.90131 30.0339 4.99707 28.7454C5.07543 28.1708 5.14507 27.4831 5.6413 27.1261C5.88507 26.9433 6.2333 26.8562 6.63377 26.8214C8.43587 26.7431 10.6123 26.7344 11.3436 27.0565C11.6657 27.2306 11.7267 27.5614 11.7615 27.9271C11.805 28.8063 11.9356 29.9903 11.8747 30.8522L11.8485 30.9915H11.8398ZM9.5328 31.0263C9.58503 30.356 9.71562 28.9282 9.60245 28.3275C9.58503 28.2318 7.19094 27.9532 6.88623 28.0402C6.72082 28.667 6.76435 30.652 6.76435 30.9654C6.79918 31.0873 6.92976 31.0873 7.20835 31.0873C7.78293 31.0698 8.95822 31.1308 9.49798 31.0611L9.5328 31.0263Z" fill="#121212"/>
<path d="M26.9446 32.0884C26.3004 32.4976 25.4472 32.4367 24.6985 32.4715C23.2359 32.4106 21.5296 32.5499 20.9811 31.5922C20.4414 30.3734 20.5458 28.345 21.3032 27.248C22.0432 26.6038 22.7919 26.8214 23.7757 26.7866C24.7159 26.865 26.1524 26.6734 26.962 27.0304C27.7455 27.6485 27.5453 28.8238 27.6846 29.7379C27.7194 30.5388 27.6672 31.4616 27.0578 32.0014L26.9446 32.0884ZM25.3079 31.035C25.3688 30.4343 25.5168 28.8673 25.4124 28.3362C25.395 28.2405 22.9834 27.9532 22.6787 28.0315C22.5482 28.1795 22.5482 30.7129 22.5743 30.9741C22.7049 31.1221 22.8006 31.0873 23.0531 31.096C23.6625 31.0786 24.6985 31.1395 25.2644 31.0699L25.3079 31.035Z" fill="#121212"/>
<path d="M34.5446 24.5057C33.3519 25.2196 31.4105 24.9236 30.122 24.6885C29.7825 24.5927 29.5039 24.4622 29.3211 24.1836C28.8945 23.3826 28.9641 22.3989 28.9903 21.4499C29.086 20.649 29.0599 19.4302 29.5387 18.8295C30.1307 18.3768 31.4888 18.638 32.3159 18.5422C33.2822 18.5596 34.414 18.3159 34.8841 19.2822C35.1017 19.7784 35.093 20.3443 35.1366 20.8754C35.1888 22.0158 35.4151 23.4349 34.6577 24.4099L34.5533 24.5057H34.5446ZM33.082 23.3217C33.1429 23.2346 33.1255 22.6426 33.1603 21.9026C33.1255 21.0669 33.3519 20.4401 33.082 20.1963C32.5683 20.0831 31.7413 20.0309 31.2015 19.9525C30.9055 19.9177 30.7575 19.9003 30.7053 20.0048C30.6531 20.3356 30.6008 22.5556 30.6444 23.2608C30.9055 23.4784 31.3582 23.3304 31.7413 23.3739C32.1592 23.3565 32.7163 23.4088 33.0297 23.3478L33.0733 23.313L33.082 23.3217Z" fill="#121212"/>
<path d="M18.8046 32.071C18.1604 32.5324 17.2463 32.428 16.4714 32.4628C15.1917 32.4193 13.8423 32.4628 13.4505 31.5748C12.9543 30.3037 13.111 28.2492 13.7378 27.0739C14.1122 26.6995 14.9653 26.8475 15.5573 26.8127C16.4279 26.8127 17.3072 26.7692 18.082 26.8214C19.2747 26.8649 19.3705 28.0315 19.3966 28.9805C19.3966 29.9294 19.5011 31.2091 18.9091 31.9753L18.8133 32.071H18.8046ZM17.2898 31.035C17.3333 30.7216 17.49 28.7106 17.3681 28.3188C17.0199 28.1621 16.6891 28.1969 16.2886 28.1273C15.862 28.1099 15.2874 27.9358 14.974 28.0315C14.826 28.1708 14.8609 30.7042 14.887 30.9654C15.1394 31.2004 15.6009 31.0437 15.9752 31.0873C16.3931 31.0699 16.9503 31.1308 17.255 31.0699L17.2985 31.035H17.2898Z" fill="#121212"/>
</svg>
